# xmcd CD database file
#
# Track frame offsets:
#	182
#	14662
#	26637
#	42267
#	56870
#	70385
#	82937
#	95962
#	110495
#	124775
#	140050
#	154602
#	168685
#	182267
#	197170
#	211145
#	227652
#	243167
#	256967
#
# Disc length: 3625 seconds
#
# Revision: 2
# Processed by: cddbd v1.5.1PL2 Copyright (c) Steve Scherf et al.
# Submitted via: CDex 1.51
#
DISCID=0e0e2713
DTITLE=Bessie Smith - Dixie Flyer Blues
DYEAR=1900
DGENRE=
TTITLE0=I'm Down In The Dumps
TTITLE1=Take Me For A Buggy Ride
TTITLE2=Do Your Duty
TTITLE3=He's Got Me Going
TTITLE4=Kitchen Man
TTITLE5=You've Got To Give Me Some
TTITLE6=I Used To Be Your Sweet Mama
TTITLE7=Devil's Gonna Get You
TTITLE8=Thinking Blues
TTITLE9=Send Me To The 'Lectric Chair
TTITLE10=Trombone Cholly
TTITLE11=Cake Walkin' Babies
TTITLE12=The Yellow Dog Blues
TTITLE13=Soft Pedal Blues
TTITLE14=Dixie Flyer Blues
TTITLE15=Nashville Woman Blues
TTITLE16=Careless Love Blues
TTITLE17=J.C. Holmes Blues
TTITLE18=I Ain't Gonna Play A Second Fiddle
EXTD=
EXTT0=
EXTT1=
EXTT2=
EXTT3=
EXTT4=
EXTT5=
EXTT6=
EXTT7=
EXTT8=
EXTT9=
EXTT10=
EXTT11=
EXTT12=
EXTT13=
EXTT14=
EXTT15=
EXTT16=
EXTT17=
EXTT18=
PLAYORDER=
